solid 
 facet normal  0.000000e+00  0.000000e+00  1.000000e+00
   outer loop
     vertex -2.474328e-01 -1.949942e-02 -5.684138e-02
     vertex -2.469139e-01 -3.916025e-02 -5.684138e-02
     vertex -2.431911e-01 -5.171845e-02 -5.684138e-02
   endloop
 endfacet
 facet normal -9.914448e-01 -1.305265e-01 -0.000000e+00
   outer loop
     vertex -2.500000e-01  3.061617e-17  9.431586e-01
     vertex -2.500000e-01  3.061617e-17 -5.684138e-02
     vertex -2.474328e-01 -1.949942e-02 -5.684138e-02
   endloop
 endfacet
 facet normal -9.914449e-01 -1.305262e-01 -7.162638e-09
   outer loop
     vertex -2.500000e-01  3.061617e-17  9.431586e-01
     vertex -2.474328e-01 -1.949942e-02 -5.684138e-02
     vertex -2.431911e-01 -5.171845e-02 -5.684138e-02
   endloop
 endfacet
 facet normal  0.000000e+00 -0.000000e+00 -1.000000e+00
   outer loop
     vertex -2.482903e-01  1.298631e-02 -5.684138e-02
     vertex -2.474328e-01 -1.949942e-02 -5.684138e-02
     vertex -2.500000e-01  3.061617e-17 -5.684138e-02
   endloop
 endfacet
 facet normal -9.914450e-01 -1.305255e-01 -4.096514e-08
   outer loop
     vertex -2.500000e-01  3.061617e-17  9.431586e-01
     vertex -2.431911e-01 -5.171845e-02 -5.684138e-02
     vertex -2.414815e-01 -6.470476e-02 -5.684138e-02
   endloop
 endfacet
 facet normal -9.914449e-01 -1.305261e-01 -0.000000e+00
   outer loop
     vertex -2.414815e-01 -6.470476e-02  9.431586e-01
     vertex -2.500000e-01  3.061617e-17  9.431586e-01
     vertex -2.414815e-01 -6.470476e-02 -5.684138e-02
   endloop
 endfacet
 facet normal  0.000000e+00  0.000000e+00 -1.000000e+00
   outer loop
     vertex -2.431911e-01 -5.171845e-02 -5.684138e-02
     vertex -2.339550e-01 -8.287533e-02 -5.684138e-02
     vertex -2.414815e-01 -6.470476e-02 -5.684138e-02
   endloop
 endfacet
 facet normal  0.000000e+00 -0.000000e+00 -1.000000e+00
   outer loop
     vertex -2.440486e-01  4.520534e-02 -5.684138e-02
     vertex -2.431911e-01 -5.171845e-02 -5.684138e-02
     vertex -2.474328e-01 -1.949942e-02 -5.684138e-02
   endloop
 endfacet
 facet normal -9.238794e-01 -3.826838e-01 -0.000000e+00
   outer loop
     vertex -2.414815e-01 -6.470476e-02  9.431586e-01
     vertex -2.414815e-01 -6.470476e-02 -5.684138e-02
     vertex -2.339550e-01 -8.287533e-02 -5.684138e-02
   endloop
 endfacet
 facet normal  0.000000e+00  0.000000e+00 -1.000000e+00
   outer loop
     vertex -2.440486e-01  4.520534e-02 -5.684138e-02
     vertex -2.474328e-01 -1.949942e-02 -5.684138e-02
     vertex -2.482903e-01  1.298631e-02 -5.684138e-02
   endloop
 endfacet
 facet normal -9.914449e-01  1.305261e-01  0.000000e+00
   outer loop
     vertex -2.500000e-01  3.061617e-17  9.431586e-01
     vertex -2.414815e-01  6.470476e-02  9.431586e-01
     vertex -2.500000e-01  3.061617e-17 -5.684138e-02
   endloop
 endfacet
 facet normal  0.000000e+00  0.000000e+00  1.000000e+00
   outer loop
     vertex -2.440486e-01  4.520534e-02 -5.684138e-02
     vertex -2.486359e-01  2.608012e-02 -5.684138e-02
     vertex -2.482903e-01  1.298631e-02 -5.684138e-02
   endloop
 endfacet
 facet normal -9.914448e-01  1.305266e-01 -3.317145e-08
   outer loop
     vertex -2.414815e-01  6.470476e-02  9.431586e-01
     vertex -2.482903e-01  1.298631e-02 -5.684138e-02
     vertex -2.500000e-01  3.061617e-17 -5.684138e-02
   endloop
 endfacet
 facet normal -9.238795e-01 -3.826835e-01 -6.848043e-09
   outer loop
     vertex -2.414815e-01 -6.470476e-02  9.431586e-01
     vertex -2.339550e-01 -8.287533e-02 -5.684138e-02
     vertex -2.215189e-01 -1.128987e-01 -5.684138e-02
   endloop
 endfacet
 facet normal -9.914449e-01  1.305262e-01 -7.317018e-09
   outer loop
     vertex -2.414815e-01  6.470476e-02  9.431586e-01
     vertex -2.440486e-01  4.520534e-02 -5.684138e-02
     vertex -2.482903e-01  1.298631e-02 -5.684138e-02
   endloop
 endfacet
 facet normal  0.000000e+00 -0.000000e+00 -1.000000e+00
   outer loop
     vertex -2.364689e-01  7.680608e-02 -5.684138e-02
     vertex -2.339550e-01 -8.287533e-02 -5.684138e-02
     vertex -2.431911e-01 -5.171845e-02 -5.684138e-02
   endloop
 endfacet
 facet normal  0.000000e+00  0.000000e+00 -1.000000e+00
   outer loop
     vertex -2.364689e-01  7.680608e-02 -5.684138e-02
     vertex -2.431911e-01 -5.171845e-02 -5.684138e-02
     vertex -2.440486e-01  4.520534e-02 -5.684138e-02
   endloop
 endfacet
 facet normal  0.000000e+00  0.000000e+00  1.000000e+00
   outer loop
     vertex -2.339550e-01 -8.287533e-02 -5.684138e-02
     vertex -2.283651e-01 -1.017319e-01 -5.684138e-02
     vertex -2.215189e-01 -1.128987e-01 -5.684138e-02
   endloop
 endfacet
 facet normal -9.914449e-01  1.305258e-01  0.000000e+00
   outer loop
     vertex -2.414815e-01  6.470476e-02  9.431586e-01
     vertex -2.414815e-01  6.470476e-02 -5.684138e-02
     vertex -2.440486e-01  4.520534e-02 -5.684138e-02
   endloop
 endfacet
 facet normal -9.238796e-01 -3.826833e-01 -1.788858e-08
   outer loop
     vertex -2.414815e-01 -6.470476e-02  9.431586e-01
     vertex -2.215189e-01 -1.128987e-01 -5.684138e-02
     vertex -2.165063e-01 -1.250000e-01 -5.684138e-02
   endloop
 endfacet
 facet normal -9.238795e-01 -3.826835e-01 -0.000000e+00
   outer loop
     vertex -2.165063e-01 -1.250000e-01  9.431586e-01
     vertex -2.414815e-01 -6.470476e-02  9.431586e-01
     vertex -2.165063e-01 -1.250000e-01 -5.684138e-02
   endloop
 endfacet
 facet normal  0.000000e+00  0.000000e+00 -1.000000e+00
   outer loop
     vertex -2.364689e-01  7.680608e-02 -5.684138e-02
     vertex -2.440486e-01  4.520534e-02 -5.684138e-02
     vertex -2.414815e-01  6.470476e-02 -5.684138e-02
   endloop
 endfacet
 facet normal  0.000000e+00 -0.000000e+00 -1.000000e+00
   outer loop
     vertex -2.240329e-01  1.068294e-01 -5.684138e-02
     vertex -2.215189e-01 -1.128987e-01 -5.684138e-02
     vertex -2.339550e-01 -8.287533e-02 -5.684138e-02
   endloop
 endfacet
 facet normal  0.000000e+00  0.000000e+00 -1.000000e+00
   outer loop
     vertex -2.240329e-01  1.068294e-01 -5.684138e-02
     vertex -2.339550e-01 -8.287533e-02 -5.684138e-02
     vertex -2.364689e-01  7.680608e-02 -5.684138e-02
   endloop
 endfacet
 facet normal  0.000000e+00  0.000000e+00 -1.000000e+00
   outer loop
     vertex -2.215189e-01 -1.128987e-01 -5.684138e-02
     vertex -2.045334e-01 -1.406034e-01 -5.684138e-02
     vertex -2.165063e-01 -1.250000e-01 -5.684138e-02
   endloop
 endfacet
 facet normal -7.933537e-01 -6.087610e-01 -0.000000e+00
   outer loop
     vertex -2.165063e-01 -1.250000e-01  9.431586e-01
     vertex -2.165063e-01 -1.250000e-01 -5.684138e-02
     vertex -2.045334e-01 -1.406034e-01 -5.684138e-02
   endloop
 endfacet
 facet normal -9.238795e-01  3.826835e-01  0.000000e+00
   outer loop
     vertex -2.414815e-01  6.470476e-02  9.431586e-01
     vertex -2.165063e-01  1.250000e-01  9.431586e-01
     vertex -2.414815e-01  6.470476e-02 -5.684138e-02
   endloop
 endfacet
 facet normal -9.238796e-01  3.826833e-01  1.788858e-08
   outer loop
     vertex -2.165063e-01  1.250000e-01  9.431586e-01
     vertex -2.364689e-01  7.680608e-02 -5.684138e-02
     vertex -2.414815e-01  6.470476e-02 -5.684138e-02
   endloop
 endfacet
 facet normal  0.000000e+00  0.000000e+00  1.000000e+00
   outer loop
     vertex -2.240329e-01  1.068294e-01 -5.684138e-02
     vertex -2.334138e-01  8.954317e-02 -5.684138e-02
     vertex -2.364689e-01  7.680608e-02 -5.684138e-02
   endloop
 endfacet
 facet normal -7.933531e-01 -6.087618e-01  1.844925e-08
   outer loop
     vertex -2.165063e-01 -1.250000e-01  9.431586e-01
     vertex -2.045334e-01 -1.406034e-01 -5.684138e-02
     vertex -1.847505e-01 -1.663851e-01 -5.684138e-02
   endloop
 endfacet
 facet normal  0.000000e+00 -0.000000e+00 -1.000000e+00
   outer loop
     vertex -2.085326e-01  1.353916e-01 -5.684138e-02
     vertex -2.045334e-01 -1.406034e-01 -5.684138e-02
     vertex -2.215189e-01 -1.128987e-01 -5.684138e-02
   endloop
 endfacet
 facet normal -9.238795e-01  3.826835e-01  6.848043e-09
   outer loop
     vertex -2.165063e-01  1.250000e-01  9.431586e-01
     vertex -2.240329e-01  1.068294e-01 -5.684138e-02
     vertex -2.364689e-01  7.680608e-02 -5.684138e-02
   endloop
 endfacet
 facet normal  0.000000e+00  0.000000e+00 -1.000000e+00
   outer loop
     vertex -2.085326e-01  1.353916e-01 -5.684138e-02
     vertex -2.215189e-01 -1.128987e-01 -5.684138e-02
     vertex -2.240329e-01  1.068294e-01 -5.684138e-02
   endloop
 endfacet
 facet normal  0.000000e+00  0.000000e+00  1.000000e+00
   outer loop
     vertex -2.045334e-01 -1.406034e-01 -5.684138e-02
     vertex -1.942536e-01 -1.573707e-01 -5.684138e-02
     vertex -1.847505e-01 -1.663851e-01 -5.684138e-02
   endloop
 endfacet
 facet normal -7.933541e-01 -6.087604e-01 -7.099679e-08
   outer loop
     vertex -2.165063e-01 -1.250000e-01  9.431586e-01
     vertex -1.847505e-01 -1.663851e-01 -5.684138e-02
     vertex -1.767767e-01 -1.767767e-01 -5.684138e-02
   endloop
 endfacet
 facet normal -9.238794e-01  3.826838e-01  0.000000e+00
   outer loop
     vertex -2.165063e-01  1.250000e-01  9.431586e-01
     vertex -2.165063e-01  1.250000e-01 -5.684138e-02
     vertex -2.240329e-01  1.068294e-01 -5.684138e-02
   endloop
 endfacet
 facet normal -7.933535e-01 -6.087613e-01 -0.000000e+00
   outer loop
     vertex -1.767767e-01 -1.767767e-01  9.431586e-01
     vertex -2.165063e-01 -1.250000e-01  9.431586e-01
     vertex -1.767767e-01 -1.767767e-01 -5.684138e-02
   endloop
 endfacet
 facet normal  0.000000e+00  0.000000e+00 -1.000000e+00
   outer loop
     vertex -2.085326e-01  1.353916e-01 -5.684138e-02
     vertex -2.240329e-01  1.068294e-01 -5.684138e-02
     vertex -2.165063e-01  1.250000e-01 -5.684138e-02
   endloop
 endfacet
 facet normal  0.000000e+00 -0.000000e+00 -1.000000e+00
   outer loop
     vertex -1.887496e-01  1.611733e-01 -5.684138e-02
     vertex -1.847505e-01 -1.663851e-01 -5.684138e-02
     vertex -2.045334e-01 -1.406034e-01 -5.684138e-02
   endloop
 endfacet
 facet normal  0.000000e+00  0.000000e+00 -1.000000e+00
   outer loop
     vertex -1.887496e-01  1.611733e-01 -5.684138e-02
     vertex -2.045334e-01 -1.406034e-01 -5.684138e-02
     vertex -2.085326e-01  1.353916e-01 -5.684138e-02
   endloop
 endfacet
 facet normal  0.000000e+00  0.000000e+00 -1.000000e+00
   outer loop
     vertex -1.847505e-01 -1.663851e-01 -5.684138e-02
     vertex -1.611733e-01 -1.887496e-01 -5.684138e-02
     vertex -1.767767e-01 -1.767767e-01 -5.684138e-02
   endloop
 endfacet
 facet normal -7.933535e-01  6.087613e-01  0.000000e+00
   outer loop
     vertex -2.165063e-01  1.250000e-01  9.431586e-01
     vertex -1.767767e-01  1.767767e-01  9.431586e-01
     vertex -2.165063e-01  1.250000e-01 -5.684138e-02
   endloop
 endfacet
 facet normal -7.933531e-01  6.087617e-01 -3.560242e-08
   outer loop
     vertex -1.767767e-01  1.767767e-01  9.431586e-01
     vertex -2.085326e-01  1.353916e-01 -5.684138e-02
     vertex -2.165063e-01  1.250000e-01 -5.684138e-02
   endloop
 endfacet
 facet normal  0.000000e+00  0.000000e+00  1.000000e+00
   outer loop
     vertex -1.887496e-01  1.611733e-01 -5.684138e-02
     vertex -2.022850e-01  1.469040e-01 -5.684138e-02
     vertex -2.085326e-01  1.353916e-01 -5.684138e-02
   endloop
 endfacet
 facet normal -6.087613e-01 -7.933535e-01  0.000000e+00
   outer loop
     vertex -1.767767e-01 -1.767767e-01 -5.684138e-02
     vertex -1.250000e-01 -2.165063e-01  9.431586e-01
     vertex -1.767767e-01 -1.767767e-01  9.431586e-01
   endloop
 endfacet
 facet normal  0.000000e+00 -0.000000e+00 -1.000000e+00
   outer loop
     vertex -1.663851e-01  1.847505e-01 -5.684138e-02
     vertex -1.611733e-01 -1.887496e-01 -5.684138e-02
     vertex -1.847505e-01 -1.663851e-01 -5.684138e-02
   endloop
 endfacet
 facet normal -7.933535e-01  6.087612e-01 -5.500948e-09
   outer loop
     vertex -1.767767e-01  1.767767e-01  9.431586e-01
     vertex -1.887496e-01  1.611733e-01 -5.684138e-02
     vertex -2.085326e-01  1.353916e-01 -5.684138e-02
   endloop
 endfacet
 facet normal  0.000000e+00  0.000000e+00 -1.000000e+00
   outer loop
     vertex -1.663851e-01  1.847505e-01 -5.684138e-02
     vertex -1.847505e-01 -1.663851e-01 -5.684138e-02
     vertex -1.887496e-01  1.611733e-01 -5.684138e-02
   endloop
 endfacet
 facet normal -6.087610e-01 -7.933537e-01 -2.031117e-08
   outer loop
     vertex -1.767767e-01 -1.767767e-01 -5.684138e-02
     vertex -1.611733e-01 -1.887496e-01 -5.684138e-02
     vertex -1.250000e-01 -2.165063e-01  9.431586e-01
   endloop
 endfacet
 facet normal  0.000000e+00  0.000000e+00  1.000000e+00
   outer loop
     vertex -1.611733e-01 -1.887496e-01 -5.684138e-02
     vertex -1.469040e-01 -2.022850e-01 -5.684138e-02
     vertex -1.353916e-01 -2.085326e-01 -5.684138e-02
   endloop
 endfacet
 facet normal -7.933537e-01  6.087610e-01  0.000000e+00
   outer loop
     vertex -1.767767e-01  1.767767e-01  9.431586e-01
     vertex -1.767767e-01  1.767767e-01 -5.684138e-02
     vertex -1.887496e-01  1.611733e-01 -5.684138e-02
   endloop
 endfacet
 facet normal -6.087612e-01 -7.933535e-01 -7.558369e-09
   outer loop
     vertex -1.611733e-01 -1.887496e-01 -5.684138e-02
     vertex -1.353916e-01 -2.085326e-01 -5.684138e-02
     vertex -1.250000e-01 -2.165063e-01  9.431586e-01
   endloop
 endfacet
 facet normal  0.000000e+00  0.000000e+00 -1.000000e+00
   outer loop
     vertex -1.663851e-01  1.847505e-01 -5.684138e-02
     vertex -1.887496e-01  1.611733e-01 -5.684138e-02
     vertex -1.767767e-01  1.767767e-01 -5.684138e-02
   endloop
 endfacet
 facet normal -6.087604e-01  7.933541e-01  0.000000e+00
   outer loop
     vertex -1.663851e-01  1.847505e-01 -5.684138e-02
     vertex -1.767767e-01  1.767767e-01 -5.684138e-02
     vertex -1.767767e-01  1.767767e-01  9.431586e-01
   endloop
 endfacet
 facet normal  0.000000e+00 -0.000000e+00 -1.000000e+00
   outer loop
     vertex -1.406034e-01  2.045334e-01 -5.684138e-02
     vertex -1.353916e-01 -2.085326e-01 -5.684138e-02
     vertex -1.611733e-01 -1.887496e-01 -5.684138e-02
   endloop
 endfacet
 facet normal  0.000000e+00  0.000000e+00 -1.000000e+00
   outer loop
     vertex -1.663851e-01  1.847505e-01 -5.684138e-02
     vertex -1.406034e-01  2.045334e-01 -5.684138e-02
     vertex -1.611733e-01 -1.887496e-01 -5.684138e-02
   endloop
 endfacet
 facet normal -6.087617e-01 -7.933531e-01  0.000000e+00
   outer loop
     vertex -1.353916e-01 -2.085326e-01 -5.684138e-02
     vertex -1.250000e-01 -2.165063e-01 -5.684138e-02
     vertex -1.250000e-01 -2.165063e-01  9.431586e-01
   endloop
 endfacet
 facet normal  0.000000e+00  0.000000e+00 -1.000000e+00
   outer loop
     vertex -1.353916e-01 -2.085326e-01 -5.684138e-02
     vertex -1.068294e-01 -2.240329e-01 -5.684138e-02
     vertex -1.250000e-01 -2.165063e-01 -5.684138e-02
   endloop
 endfacet
 facet normal -6.087618e-01  7.933531e-01 -2.245957e-08
   outer loop
     vertex -1.406034e-01  2.045334e-01 -5.684138e-02
     vertex -1.663851e-01  1.847505e-01 -5.684138e-02
     vertex -1.767767e-01  1.767767e-01  9.431586e-01
   endloop
 endfacet
 facet normal  0.000000e+00  0.000000e+00  1.000000e+00
   outer loop
     vertex -1.406034e-01  2.045334e-01 -5.684138e-02
     vertex -1.573707e-01  1.942536e-01 -5.684138e-02
     vertex -1.663851e-01  1.847505e-01 -5.684138e-02
   endloop
 endfacet
 facet normal -6.087610e-01  7.933537e-01  2.031117e-08
   outer loop
     vertex -1.250000e-01  2.165063e-01 -5.684138e-02
     vertex -1.406034e-01  2.045334e-01 -5.684138e-02
     vertex -1.767767e-01  1.767767e-01  9.431586e-01
   endloop
 endfacet
 facet normal -3.826835e-01 -9.238795e-01  0.000000e+00
   outer loop
     vertex -1.250000e-01 -2.165063e-01 -5.684138e-02
     vertex -6.470476e-02 -2.414815e-01  9.431586e-01
     vertex -1.250000e-01 -2.165063e-01  9.431586e-01
   endloop
 endfacet
 facet normal  0.000000e+00 -0.000000e+00 -1.000000e+00
   outer loop
     vertex -1.128987e-01  2.215189e-01 -5.684138e-02
     vertex -1.068294e-01 -2.240329e-01 -5.684138e-02
     vertex -1.353916e-01 -2.085326e-01 -5.684138e-02
   endloop
 endfacet
 facet normal  0.000000e+00  0.000000e+00 -1.000000e+00
   outer loop
     vertex -1.406034e-01  2.045334e-01 -5.684138e-02
     vertex -1.128987e-01  2.215189e-01 -5.684138e-02
     vertex -1.353916e-01 -2.085326e-01 -5.684138e-02
   endloop
 endfacet
 facet normal -6.087613e-01  7.933535e-01  0.000000e+00
   outer loop
     vertex -1.250000e-01  2.165063e-01 -5.684138e-02
     vertex -1.767767e-01  1.767767e-01  9.431586e-01
     vertex -1.250000e-01  2.165063e-01  9.431586e-01
   endloop
 endfacet
 facet normal -3.826838e-01 -9.238794e-01  1.864799e-08
   outer loop
     vertex -1.250000e-01 -2.165063e-01 -5.684138e-02
     vertex -1.068294e-01 -2.240329e-01 -5.684138e-02
     vertex -6.470476e-02 -2.414815e-01  9.431586e-01
   endloop
 endfacet
 facet normal  0.000000e+00  0.000000e+00  1.000000e+00
   outer loop
     vertex -1.068294e-01 -2.240329e-01 -5.684138e-02
     vertex -8.954317e-02 -2.334138e-01 -5.684138e-02
     vertex -7.680608e-02 -2.364689e-01 -5.684138e-02
   endloop
 endfacet
 facet normal -3.826835e-01 -9.238795e-01  2.772237e-09
   outer loop
     vertex -1.068294e-01 -2.240329e-01 -5.684138e-02
     vertex -7.680608e-02 -2.364689e-01 -5.684138e-02
     vertex -6.470476e-02 -2.414815e-01  9.431586e-01
   endloop
 endfacet
 facet normal  0.000000e+00  0.000000e+00 -1.000000e+00
   outer loop
     vertex -1.128987e-01  2.215189e-01 -5.684138e-02
     vertex -1.406034e-01  2.045334e-01 -5.684138e-02
     vertex -1.250000e-01  2.165063e-01 -5.684138e-02
   endloop
 endfacet
 facet normal -3.826833e-01  9.238796e-01  0.000000e+00
   outer loop
     vertex -1.128987e-01  2.215189e-01 -5.684138e-02
     vertex -1.250000e-01  2.165063e-01 -5.684138e-02
     vertex -1.250000e-01  2.165063e-01  9.431586e-01
   endloop
 endfacet
 facet normal  0.000000e+00 -0.000000e+00 -1.000000e+00
   outer loop
     vertex -8.287533e-02  2.339550e-01 -5.684138e-02
     vertex -7.680608e-02 -2.364689e-01 -5.684138e-02
     vertex -1.068294e-01 -2.240329e-01 -5.684138e-02
   endloop
 endfacet
 facet normal  0.000000e+00  0.000000e+00 -1.000000e+00
   outer loop
     vertex -1.128987e-01  2.215189e-01 -5.684138e-02
     vertex -8.287533e-02  2.339550e-01 -5.684138e-02
     vertex -1.068294e-01 -2.240329e-01 -5.684138e-02
   endloop
 endfacet
 facet normal -3.826833e-01 -9.238796e-01  0.000000e+00
   outer loop
     vertex -7.680608e-02 -2.364689e-01 -5.684138e-02
     vertex -6.470476e-02 -2.414815e-01 -5.684138e-02
     vertex -6.470476e-02 -2.414815e-01  9.431586e-01
   endloop
 endfacet
 facet normal  0.000000e+00  0.000000e+00 -1.000000e+00
   outer loop
     vertex -7.680608e-02 -2.364689e-01 -5.684138e-02
     vertex -4.520534e-02 -2.440486e-01 -5.684138e-02
     vertex -6.470476e-02 -2.414815e-01 -5.684138e-02
   endloop
 endfacet
 facet normal -3.826835e-01  9.238795e-01 -2.772237e-09
   outer loop
     vertex -8.287533e-02  2.339550e-01 -5.684138e-02
     vertex -1.128987e-01  2.215189e-01 -5.684138e-02
     vertex -1.250000e-01  2.165063e-01  9.431586e-01
   endloop
 endfacet
 facet normal  0.000000e+00  0.000000e+00  1.000000e+00
   outer loop
     vertex -8.287533e-02  2.339550e-01 -5.684138e-02
     vertex -1.017319e-01  2.283651e-01 -5.684138e-02
     vertex -1.128987e-01  2.215189e-01 -5.684138e-02
   endloop
 endfacet
 facet normal -3.826838e-01  9.238794e-01 -1.864799e-08
   outer loop
     vertex -6.470476e-02  2.414815e-01 -5.684138e-02
     vertex -8.287533e-02  2.339550e-01 -5.684138e-02
     vertex -1.250000e-01  2.165063e-01  9.431586e-01
   endloop
 endfacet
 facet normal -1.305261e-01 -9.914449e-01  0.000000e+00
   outer loop
     vertex -6.470476e-02 -2.414815e-01 -5.684138e-02
     vertex -4.592426e-17 -2.500000e-01  9.431586e-01
     vertex -6.470476e-02 -2.414815e-01  9.431586e-01
   endloop
 endfacet
 facet normal  0.000000e+00 -0.000000e+00 -1.000000e+00
   outer loop
     vertex -5.171845e-02  2.431911e-01 -5.684138e-02
     vertex -4.520534e-02 -2.440486e-01 -5.684138e-02
     vertex -7.680608e-02 -2.364689e-01 -5.684138e-02
   endloop
 endfacet
 facet normal  0.000000e+00  0.000000e+00 -1.000000e+00
   outer loop
     vertex -8.287533e-02  2.339550e-01 -5.684138e-02
     vertex -5.171845e-02  2.431911e-01 -5.684138e-02
     vertex -7.680608e-02 -2.364689e-01 -5.684138e-02
   endloop
 endfacet
 facet normal -3.826835e-01  9.238795e-01  0.000000e+00
   outer loop
     vertex -6.470476e-02  2.414815e-01 -5.684138e-02
     vertex -1.250000e-01  2.165063e-01  9.431586e-01
     vertex -6.470476e-02  2.414815e-01  9.431586e-01
   endloop
 endfacet
 facet normal -1.305258e-01 -9.914449e-01 -2.345494e-08
   outer loop
     vertex -6.470476e-02 -2.414815e-01 -5.684138e-02
     vertex -4.520534e-02 -2.440486e-01 -5.684138e-02
     vertex -4.592426e-17 -2.500000e-01  9.431586e-01
   endloop
 endfacet
 facet normal  0.000000e+00  0.000000e+00  1.000000e+00
   outer loop
     vertex -4.520534e-02 -2.440486e-01 -5.684138e-02
     vertex -2.608012e-02 -2.486359e-01 -5.684138e-02
     vertex -1.298631e-02 -2.482903e-01 -5.684138e-02
   endloop
 endfacet
 facet normal -1.305262e-01 -9.914449e-01 -6.491954e-09
   outer loop
     vertex -4.520534e-02 -2.440486e-01 -5.684138e-02
     vertex -1.298631e-02 -2.482903e-01 -5.684138e-02
     vertex -4.592426e-17 -2.500000e-01  9.431586e-01
   endloop
 endfacet
 facet normal  0.000000e+00  0.000000e+00 -1.000000e+00
   outer loop
     vertex -5.171845e-02  2.431911e-01 -5.684138e-02
     vertex -8.287533e-02  2.339550e-01 -5.684138e-02
     vertex -6.470476e-02  2.414815e-01 -5.684138e-02
   endloop
 endfacet
 facet normal -1.305255e-01  9.914450e-01  0.000000e+00
   outer loop
     vertex -5.171845e-02  2.431911e-01 -5.684138e-02
     vertex -6.470476e-02  2.414815e-01 -5.684138e-02
     vertex -6.470476e-02  2.414815e-01  9.431586e-01
   endloop
 endfacet
 facet normal  0.000000e+00 -0.000000e+00 -1.000000e+00
   outer loop
     vertex -1.949942e-02  2.474328e-01 -5.684138e-02
     vertex -1.298631e-02 -2.482903e-01 -5.684138e-02
     vertex -4.520534e-02 -2.440486e-01 -5.684138e-02
   endloop
 endfacet
 facet normal  0.000000e+00  0.000000e+00 -1.000000e+00
   outer loop
     vertex -5.171845e-02  2.431911e-01 -5.684138e-02
     vertex -1.949942e-02  2.474328e-01 -5.684138e-02
     vertex -4.520534e-02 -2.440486e-01 -5.684138e-02
   endloop
 endfacet
 facet normal -1.305266e-01 -9.914448e-01  0.000000e+00
   outer loop
     vertex -1.298631e-02 -2.482903e-01 -5.684138e-02
     vertex -4.592426e-17 -2.500000e-01 -5.684138e-02
     vertex -4.592426e-17 -2.500000e-01  9.431586e-01
   endloop
 endfacet
 facet normal  0.000000e+00  0.000000e+00 -1.000000e+00
   outer loop
     vertex -1.298631e-02 -2.482903e-01 -5.684138e-02
     vertex  1.949942e-02 -2.474328e-01 -5.684138e-02
     vertex -4.592426e-17 -2.500000e-01 -5.684138e-02
   endloop
 endfacet
 facet normal -1.305262e-01  9.914449e-01 -8.487681e-09
   outer loop
     vertex -1.949942e-02  2.474328e-01 -5.684138e-02
     vertex -5.171845e-02  2.431911e-01 -5.684138e-02
     vertex -6.470476e-02  2.414815e-01  9.431586e-01
   endloop
 endfacet
 facet normal  0.000000e+00  0.000000e+00  1.000000e+00
   outer loop
     vertex -5.171845e-02  2.431911e-01 -5.684138e-02
     vertex -1.949942e-02  2.474328e-01 -5.684138e-02
     vertex -3.916025e-02  2.469139e-01 -5.684138e-02
   endloop
 endfacet
 facet normal -1.305265e-01  9.914448e-01 -2.509276e-08
   outer loop
     vertex  1.530808e-17  2.500000e-01 -5.684138e-02
     vertex -1.949942e-02  2.474328e-01 -5.684138e-02
     vertex -6.470476e-02  2.414815e-01  9.431586e-01
   endloop
 endfacet
 facet normal  1.305261e-01 -9.914449e-01  0.000000e+00
   outer loop
     vertex -4.592426e-17 -2.500000e-01 -5.684138e-02
     vertex  6.470476e-02 -2.414815e-01  9.431586e-01
     vertex -4.592426e-17 -2.500000e-01  9.431586e-01
   endloop
 endfacet
 facet normal  0.000000e+00 -0.000000e+00 -1.000000e+00
   outer loop
     vertex  1.298631e-02  2.482903e-01 -5.684138e-02
     vertex  1.949942e-02 -2.474328e-01 -5.684138e-02
     vertex -1.298631e-02 -2.482903e-01 -5.684138e-02
   endloop
 endfacet
 facet normal  0.000000e+00  0.000000e+00 -1.000000e+00
   outer loop
     vertex -1.949942e-02  2.474328e-01 -5.684138e-02
     vertex  1.298631e-02  2.482903e-01 -5.684138e-02
     vertex -1.298631e-02 -2.482903e-01 -5.684138e-02
   endloop
 endfacet
 facet normal -1.305261e-01  9.914449e-01  0.000000e+00
   outer loop
     vertex  1.530808e-17  2.500000e-01 -5.684138e-02
     vertex -6.470476e-02  2.414815e-01  9.431586e-01
     vertex  1.530808e-17  2.500000e-01  9.431586e-01
   endloop
 endfacet
 facet normal  1.305265e-01 -9.914448e-01 -2.509276e-08
   outer loop
     vertex -4.592426e-17 -2.500000e-01 -5.684138e-02
     vertex  1.949942e-02 -2.474328e-01 -5.684138e-02
     vertex  6.470476e-02 -2.414815e-01  9.431586e-01
   endloop
 endfacet
 facet normal  0.000000e+00  0.000000e+00  1.000000e+00
   outer loop
     vertex  1.949942e-02 -2.474328e-01 -5.684138e-02
     vertex  3.916025e-02 -2.469139e-01 -5.684138e-02
     vertex  5.171845e-02 -2.431911e-01 -5.684138e-02
   endloop
 endfacet
 facet normal  1.305262e-01 -9.914449e-01 -8.487681e-09
   outer loop
     vertex  1.949942e-02 -2.474328e-01 -5.684138e-02
     vertex  5.171845e-02 -2.431911e-01 -5.684138e-02
     vertex  6.470476e-02 -2.414815e-01  9.431586e-01
   endloop
 endfacet
 facet normal  0.000000e+00  0.000000e+00 -1.000000e+00
   outer loop
     vertex -1.949942e-02  2.474328e-01 -5.684138e-02
     vertex  1.530808e-17  2.500000e-01 -5.684138e-02
     vertex  1.298631e-02  2.482903e-01 -5.684138e-02
   endloop
 endfacet
 facet normal  1.305266e-01  9.914448e-01  0.000000e+00
   outer loop
     vertex  1.298631e-02  2.482903e-01 -5.684138e-02
     vertex  1.530808e-17  2.500000e-01 -5.684138e-02
     vertex  1.530808e-17  2.500000e-01  9.431586e-01
   endloop
 endfacet
 facet normal  0.000000e+00 -0.000000e+00 -1.000000e+00
   outer loop
     vertex  4.520534e-02  2.440486e-01 -5.684138e-02
     vertex  5.171845e-02 -2.431911e-01 -5.684138e-02
     vertex  1.949942e-02 -2.474328e-01 -5.684138e-02
   endloop
 endfacet
 facet normal  0.000000e+00  0.000000e+00 -1.000000e+00
   outer loop
     vertex  1.298631e-02  2.482903e-01 -5.684138e-02
     vertex  4.520534e-02  2.440486e-01 -5.684138e-02
     vertex  1.949942e-02 -2.474328e-01 -5.684138e-02
   endloop
 endfacet
 facet normal  1.305255e-01 -9.914450e-01  0.000000e+00
   outer loop
     vertex  5.171845e-02 -2.431911e-01 -5.684138e-02
     vertex  6.470476e-02 -2.414815e-01 -5.684138e-02
     vertex  6.470476e-02 -2.414815e-01  9.431586e-01
   endloop
 endfacet
 facet normal  0.000000e+00  0.000000e+00 -1.000000e+00
   outer loop
     vertex  5.171845e-02 -2.431911e-01 -5.684138e-02
     vertex  8.287533e-02 -2.339550e-01 -5.684138e-02
     vertex  6.470476e-02 -2.414815e-01 -5.684138e-02
   endloop
 endfacet
 facet normal  1.305262e-01  9.914449e-01 -6.491954e-09
   outer loop
     vertex  4.520534e-02  2.440486e-01 -5.684138e-02
     vertex  1.298631e-02  2.482903e-01 -5.684138e-02
     vertex  1.530808e-17  2.500000e-01  9.431586e-01
   endloop
 endfacet
 facet normal -0.000000e+00  0.000000e+00  1.000000e+00
   outer loop
     vertex  1.298631e-02  2.482903e-01 -5.684138e-02
     vertex  4.520534e-02  2.440486e-01 -5.684138e-02
     vertex  2.608012e-02  2.486359e-01 -5.684138e-02
   endloop
 endfacet
 facet normal  1.305258e-01  9.914449e-01 -2.345494e-08
   outer loop
     vertex  6.470476e-02  2.414815e-01 -5.684138e-02
     vertex  4.520534e-02  2.440486e-01 -5.684138e-02
     vertex  1.530808e-17  2.500000e-01  9.431586e-01
   endloop
 endfacet
 facet normal  3.826835e-01 -9.238795e-01  0.000000e+00
   outer loop
     vertex  6.470476e-02 -2.414815e-01 -5.684138e-02
     vertex  1.250000e-01 -2.165063e-01  9.431586e-01
     vertex  6.470476e-02 -2.414815e-01  9.431586e-01
   endloop
 endfacet
 facet normal  0.000000e+00 -0.000000e+00 -1.000000e+00
   outer loop
     vertex  7.680608e-02  2.364689e-01 -5.684138e-02
     vertex  8.287533e-02 -2.339550e-01 -5.684138e-02
     vertex  5.171845e-02 -2.431911e-01 -5.684138e-02
   endloop
 endfacet
 facet normal  0.000000e+00  0.000000e+00 -1.000000e+00
   outer loop
     vertex  4.520534e-02  2.440486e-01 -5.684138e-02
     vertex  7.680608e-02  2.364689e-01 -5.684138e-02
     vertex  5.171845e-02 -2.431911e-01 -5.684138e-02
   endloop
 endfacet
 facet normal  1.305261e-01  9.914449e-01 -0.000000e+00
   outer loop
     vertex  6.470476e-02  2.414815e-01 -5.684138e-02
     vertex  1.530808e-17  2.500000e-01  9.431586e-01
     vertex  6.470476e-02  2.414815e-01  9.431586e-01
   endloop
 endfacet
 facet normal  3.826838e-01 -9.238794e-01 -1.864799e-08
   outer loop
     vertex  6.470476e-02 -2.414815e-01 -5.684138e-02
     vertex  8.287533e-02 -2.339550e-01 -5.684138e-02
     vertex  1.250000e-01 -2.165063e-01  9.431586e-01
   endloop
 endfacet
 facet normal  0.000000e+00  0.000000e+00  1.000000e+00
   outer loop
     vertex  8.287533e-02 -2.339550e-01 -5.684138e-02
     vertex  1.017319e-01 -2.283651e-01 -5.684138e-02
     vertex  1.128987e-01 -2.215189e-01 -5.684138e-02
   endloop
 endfacet
 facet normal  3.826835e-01 -9.238795e-01 -2.772237e-09
   outer loop
     vertex  8.287533e-02 -2.339550e-01 -5.684138e-02
     vertex  1.128987e-01 -2.215189e-01 -5.684138e-02
     vertex  1.250000e-01 -2.165063e-01  9.431586e-01
   endloop
 endfacet
 facet normal  0.000000e+00  0.000000e+00 -1.000000e+00
   outer loop
     vertex  7.680608e-02  2.364689e-01 -5.684138e-02
     vertex  4.520534e-02  2.440486e-01 -5.684138e-02
     vertex  6.470476e-02  2.414815e-01 -5.684138e-02
   endloop
 endfacet
 facet normal  3.826833e-01  9.238796e-01  0.000000e+00
   outer loop
     vertex  7.680608e-02  2.364689e-01 -5.684138e-02
     vertex  6.470476e-02  2.414815e-01 -5.684138e-02
     vertex  6.470476e-02  2.414815e-01  9.431586e-01
   endloop
 endfacet
 facet normal  0.000000e+00 -0.000000e+00 -1.000000e+00
   outer loop
     vertex  1.068294e-01  2.240329e-01 -5.684138e-02
     vertex  1.128987e-01 -2.215189e-01 -5.684138e-02
     vertex  8.287533e-02 -2.339550e-01 -5.684138e-02
   endloop
 endfacet
 facet normal  0.000000e+00  0.000000e+00 -1.000000e+00
   outer loop
     vertex  7.680608e-02  2.364689e-01 -5.684138e-02
     vertex  1.068294e-01  2.240329e-01 -5.684138e-02
     vertex  8.287533e-02 -2.339550e-01 -5.684138e-02
   endloop
 endfacet
 facet normal  3.826833e-01 -9.238796e-01  0.000000e+00
   outer loop
     vertex  1.128987e-01 -2.215189e-01 -5.684138e-02
     vertex  1.250000e-01 -2.165063e-01 -5.684138e-02
     vertex  1.250000e-01 -2.165063e-01  9.431586e-01
   endloop
 endfacet
 facet normal  0.000000e+00  0.000000e+00 -1.000000e+00
   outer loop
     vertex  1.128987e-01 -2.215189e-01 -5.684138e-02
     vertex  1.406034e-01 -2.045334e-01 -5.684138e-02
     vertex  1.250000e-01 -2.165063e-01 -5.684138e-02
   endloop
 endfacet
 facet normal  3.826835e-01  9.238795e-01  2.772237e-09
   outer loop
     vertex  1.068294e-01  2.240329e-01 -5.684138e-02
     vertex  7.680608e-02  2.364689e-01 -5.684138e-02
     vertex  6.470476e-02  2.414815e-01  9.431586e-01
   endloop
 endfacet
 facet normal  0.000000e+00  0.000000e+00  1.000000e+00
   outer loop
     vertex  1.068294e-01  2.240329e-01 -5.684138e-02
     vertex  8.954317e-02  2.334138e-01 -5.684138e-02
     vertex  7.680608e-02  2.364689e-01 -5.684138e-02
   endloop
 endfacet
 facet normal  3.826838e-01  9.238794e-01  1.864799e-08
   outer loop
     vertex  1.250000e-01  2.165063e-01 -5.684138e-02
     vertex  1.068294e-01  2.240329e-01 -5.684138e-02
     vertex  6.470476e-02  2.414815e-01  9.431586e-01
   endloop
 endfacet
 facet normal  0.000000e+00 -0.000000e+00 -1.000000e+00
   outer loop
     vertex  1.353916e-01  2.085326e-01 -5.684138e-02
     vertex  1.406034e-01 -2.045334e-01 -5.684138e-02
     vertex  1.128987e-01 -2.215189e-01 -5.684138e-02
   endloop
 endfacet
 facet normal  6.087613e-01 -7.933535e-01  0.000000e+00
   outer loop
     vertex  1.250000e-01 -2.165063e-01 -5.684138e-02
     vertex  1.767767e-01 -1.767767e-01  9.431586e-01
     vertex  1.250000e-01 -2.165063e-01  9.431586e-01
   endloop
 endfacet
 facet normal  0.000000e+00  0.000000e+00 -1.000000e+00
   outer loop
     vertex  1.068294e-01  2.240329e-01 -5.684138e-02
     vertex  1.353916e-01  2.085326e-01 -5.684138e-02
     vertex  1.128987e-01 -2.215189e-01 -5.684138e-02
   endloop
 endfacet
 facet normal  3.826835e-01  9.238795e-01 -0.000000e+00
   outer loop
     vertex  1.250000e-01  2.165063e-01 -5.684138e-02
     vertex  6.470476e-02  2.414815e-01  9.431586e-01
     vertex  1.250000e-01  2.165063e-01  9.431586e-01
   endloop
 endfacet
 facet normal  6.087610e-01 -7.933537e-01  2.031117e-08
   outer loop
     vertex  1.250000e-01 -2.165063e-01 -5.684138e-02
     vertex  1.406034e-01 -2.045334e-01 -5.684138e-02
     vertex  1.767767e-01 -1.767767e-01  9.431586e-01
   endloop
 endfacet
 facet normal  0.000000e+00  0.000000e+00  1.000000e+00
   outer loop
     vertex  1.406034e-01 -2.045334e-01 -5.684138e-02
     vertex  1.573707e-01 -1.942536e-01 -5.684138e-02
     vertex  1.663851e-01 -1.847505e-01 -5.684138e-02
   endloop
 endfacet
 facet normal  6.087618e-01 -7.933531e-01 -2.245957e-08
   outer loop
     vertex  1.406034e-01 -2.045334e-01 -5.684138e-02
     vertex  1.663851e-01 -1.847505e-01 -5.684138e-02
     vertex  1.767767e-01 -1.767767e-01  9.431586e-01
   endloop
 endfacet
 facet normal  0.000000e+00  0.000000e+00 -1.000000e+00
   outer loop
     vertex  1.353916e-01  2.085326e-01 -5.684138e-02
     vertex  1.068294e-01  2.240329e-01 -5.684138e-02
     vertex  1.250000e-01  2.165063e-01 -5.684138e-02
   endloop
 endfacet
 facet normal  0.000000e+00 -0.000000e+00 -1.000000e+00
   outer loop
     vertex  1.611733e-01  1.887496e-01 -5.684138e-02
     vertex  1.663851e-01 -1.847505e-01 -5.684138e-02
     vertex  1.406034e-01 -2.045334e-01 -5.684138e-02
   endloop
 endfacet
 facet normal  6.087617e-01  7.933531e-01  0.000000e+00
   outer loop
     vertex  1.353916e-01  2.085326e-01 -5.684138e-02
     vertex  1.250000e-01  2.165063e-01 -5.684138e-02
     vertex  1.250000e-01  2.165063e-01  9.431586e-01
   endloop
 endfacet
 facet normal  0.000000e+00  0.000000e+00 -1.000000e+00
   outer loop
     vertex  1.353916e-01  2.085326e-01 -5.684138e-02
     vertex  1.611733e-01  1.887496e-01 -5.684138e-02
     vertex  1.406034e-01 -2.045334e-01 -5.684138e-02
   endloop
 endfacet
 facet normal  6.087604e-01 -7.933541e-01  0.000000e+00
   outer loop
     vertex  1.663851e-01 -1.847505e-01 -5.684138e-02
     vertex  1.767767e-01 -1.767767e-01 -5.684138e-02
     vertex  1.767767e-01 -1.767767e-01  9.431586e-01
   endloop
 endfacet
 facet normal  0.000000e+00  0.000000e+00 -1.000000e+00
   outer loop
     vertex  1.663851e-01 -1.847505e-01 -5.684138e-02
     vertex  1.887496e-01 -1.611733e-01 -5.684138e-02
     vertex  1.767767e-01 -1.767767e-01 -5.684138e-02
   endloop
 endfacet
 facet normal  6.087612e-01  7.933535e-01 -7.558369e-09
   outer loop
     vertex  1.611733e-01  1.887496e-01 -5.684138e-02
     vertex  1.353916e-01  2.085326e-01 -5.684138e-02
     vertex  1.250000e-01  2.165063e-01  9.431586e-01
   endloop
 endfacet
 facet normal  7.933537e-01 -6.087610e-01  0.000000e+00
   outer loop
     vertex  1.767767e-01 -1.767767e-01  9.431586e-01
     vertex  1.767767e-01 -1.767767e-01 -5.684138e-02
     vertex  1.887496e-01 -1.611733e-01 -5.684138e-02
   endloop
 endfacet
 facet normal  0.000000e+00  0.000000e+00  1.000000e+00
   outer loop
     vertex  1.611733e-01  1.887496e-01 -5.684138e-02
     vertex  1.469040e-01  2.022850e-01 -5.684138e-02
     vertex  1.353916e-01  2.085326e-01 -5.684138e-02
   endloop
 endfacet
 facet normal  6.087610e-01  7.933537e-01 -2.031117e-08
   outer loop
     vertex  1.767767e-01  1.767767e-01 -5.684138e-02
     vertex  1.611733e-01  1.887496e-01 -5.684138e-02
     vertex  1.250000e-01  2.165063e-01  9.431586e-01
   endloop
 endfacet
 facet normal  0.000000e+00 -0.000000e+00 -1.000000e+00
   outer loop
     vertex  1.847505e-01  1.663851e-01 -5.684138e-02
     vertex  1.887496e-01 -1.611733e-01 -5.684138e-02
     vertex  1.663851e-01 -1.847505e-01 -5.684138e-02
   endloop
 endfacet
 facet normal  0.000000e+00  0.000000e+00 -1.000000e+00
   outer loop
     vertex  1.611733e-01  1.887496e-01 -5.684138e-02
     vertex  1.847505e-01  1.663851e-01 -5.684138e-02
     vertex  1.663851e-01 -1.847505e-01 -5.684138e-02
   endloop
 endfacet
 facet normal  6.087613e-01  7.933535e-01 -0.000000e+00
   outer loop
     vertex  1.767767e-01  1.767767e-01 -5.684138e-02
     vertex  1.250000e-01  2.165063e-01  9.431586e-01
     vertex  1.767767e-01  1.767767e-01  9.431586e-01
   endloop
 endfacet
 facet normal  7.933535e-01 -6.087613e-01 -6.120972e-09
   outer loop
     vertex  2.165063e-01 -1.250000e-01  9.431586e-01
     vertex  1.767767e-01 -1.767767e-01  9.431586e-01
     vertex  1.887496e-01 -1.611733e-01 -5.684138e-02
   endloop
 endfacet
 facet normal  0.000000e+00  0.000000e+00  1.000000e+00
   outer loop
     vertex  1.887496e-01 -1.611733e-01 -5.684138e-02
     vertex  2.022850e-01 -1.469040e-01 -5.684138e-02
     vertex  2.085326e-01 -1.353916e-01 -5.684138e-02
   endloop
 endfacet
 facet normal  7.933535e-01 -6.087612e-01 -7.558369e-09
   outer loop
     vertex  2.165063e-01 -1.250000e-01  9.431586e-01
     vertex  1.887496e-01 -1.611733e-01 -5.684138e-02
     vertex  2.085326e-01 -1.353916e-01 -5.684138e-02
   endloop
 endfacet
 facet normal  0.000000e+00  0.000000e+00 -1.000000e+00
   outer loop
     vertex  1.847505e-01  1.663851e-01 -5.684138e-02
     vertex  1.611733e-01  1.887496e-01 -5.684138e-02
     vertex  1.767767e-01  1.767767e-01 -5.684138e-02
   endloop
 endfacet
 facet normal  0.000000e+00  0.000000e+00 -1.000000e+00
   outer loop
     vertex  1.887496e-01 -1.611733e-01 -5.684138e-02
     vertex  2.045334e-01  1.406034e-01 -5.684138e-02
     vertex  2.085326e-01 -1.353916e-01 -5.684138e-02
   endloop
 endfacet
 facet normal  7.933541e-01  6.087604e-01  0.000000e+00
   outer loop
     vertex  1.767767e-01  1.767767e-01  9.431586e-01
     vertex  1.847505e-01  1.663851e-01 -5.684138e-02
     vertex  1.767767e-01  1.767767e-01 -5.684138e-02
   endloop
 endfacet
 facet normal  0.000000e+00  0.000000e+00 -1.000000e+00
   outer loop
     vertex  1.887496e-01 -1.611733e-01 -5.684138e-02
     vertex  1.847505e-01  1.663851e-01 -5.684138e-02
     vertex  2.045334e-01  1.406034e-01 -5.684138e-02
   endloop
 endfacet
 facet normal  7.933531e-01 -6.087617e-01  0.000000e+00
   outer loop
     vertex  2.165063e-01 -1.250000e-01  9.431586e-01
     vertex  2.085326e-01 -1.353916e-01 -5.684138e-02
     vertex  2.165063e-01 -1.250000e-01 -5.684138e-02
   endloop
 endfacet
 facet normal  0.000000e+00  0.000000e+00 -1.000000e+00
   outer loop
     vertex  2.085326e-01 -1.353916e-01 -5.684138e-02
     vertex  2.240329e-01 -1.068294e-01 -5.684138e-02
     vertex  2.165063e-01 -1.250000e-01 -5.684138e-02
   endloop
 endfacet
 facet normal  7.933531e-01  6.087618e-01 -2.245957e-08
   outer loop
     vertex  1.767767e-01  1.767767e-01  9.431586e-01
     vertex  2.045334e-01  1.406034e-01 -5.684138e-02
     vertex  1.847505e-01  1.663851e-01 -5.684138e-02
   endloop
 endfacet
 facet normal  9.238794e-01 -3.826838e-01  0.000000e+00
   outer loop
     vertex  2.165063e-01 -1.250000e-01  9.431586e-01
     vertex  2.165063e-01 -1.250000e-01 -5.684138e-02
     vertex  2.240329e-01 -1.068294e-01 -5.684138e-02
   endloop
 endfacet
 facet normal  0.000000e+00  0.000000e+00  1.000000e+00
   outer loop
     vertex  2.045334e-01  1.406034e-01 -5.684138e-02
     vertex  1.942536e-01  1.573707e-01 -5.684138e-02
     vertex  1.847505e-01  1.663851e-01 -5.684138e-02
   endloop
 endfacet
 facet normal  0.000000e+00  0.000000e+00 -1.000000e+00
   outer loop
     vertex  2.085326e-01 -1.353916e-01 -5.684138e-02
     vertex  2.215189e-01  1.128987e-01 -5.684138e-02
     vertex  2.240329e-01 -1.068294e-01 -5.684138e-02
   endloop
 endfacet
 facet normal  7.933535e-01  6.087613e-01  6.120972e-09
   outer loop
     vertex  1.767767e-01  1.767767e-01  9.431586e-01
     vertex  2.165063e-01  1.250000e-01  9.431586e-01
     vertex  2.045334e-01  1.406034e-01 -5.684138e-02
   endloop
 endfacet
 facet normal  0.000000e+00  0.000000e+00 -1.000000e+00
   outer loop
     vertex  2.085326e-01 -1.353916e-01 -5.684138e-02
     vertex  2.045334e-01  1.406034e-01 -5.684138e-02
     vertex  2.215189e-01  1.128987e-01 -5.684138e-02
   endloop
 endfacet
 facet normal  9.238795e-01 -3.826835e-01  5.619758e-09
   outer loop
     vertex  2.414815e-01 -6.470476e-02  9.431586e-01
     vertex  2.165063e-01 -1.250000e-01  9.431586e-01
     vertex  2.240329e-01 -1.068294e-01 -5.684138e-02
   endloop
 endfacet
 facet normal  0.000000e+00  0.000000e+00  1.000000e+00
   outer loop
     vertex  2.240329e-01 -1.068294e-01 -5.684138e-02
     vertex  2.334138e-01 -8.954317e-02 -5.684138e-02
     vertex  2.364689e-01 -7.680608e-02 -5.684138e-02
   endloop
 endfacet
 facet normal  7.933537e-01  6.087610e-01  0.000000e+00
   outer loop
     vertex  2.165063e-01  1.250000e-01  9.431586e-01
     vertex  2.165063e-01  1.250000e-01 -5.684138e-02
     vertex  2.045334e-01  1.406034e-01 -5.684138e-02
   endloop
 endfacet
 facet normal  9.238795e-01 -3.826835e-01  2.772237e-09
   outer loop
     vertex  2.414815e-01 -6.470476e-02  9.431586e-01
     vertex  2.240329e-01 -1.068294e-01 -5.684138e-02
     vertex  2.364689e-01 -7.680608e-02 -5.684138e-02
   endloop
 endfacet
 facet normal  0.000000e+00  0.000000e+00 -1.000000e+00
   outer loop
     vertex  2.215189e-01  1.128987e-01 -5.684138e-02
     vertex  2.045334e-01  1.406034e-01 -5.684138e-02
     vertex  2.165063e-01  1.250000e-01 -5.684138e-02
   endloop
 endfacet
 facet normal  0.000000e+00  0.000000e+00 -1.000000e+00
   outer loop
     vertex  2.240329e-01 -1.068294e-01 -5.684138e-02
     vertex  2.339550e-01  8.287533e-02 -5.684138e-02
     vertex  2.364689e-01 -7.680608e-02 -5.684138e-02
   endloop
 endfacet
 facet normal  0.000000e+00  0.000000e+00 -1.000000e+00
   outer loop
     vertex  2.240329e-01 -1.068294e-01 -5.684138e-02
     vertex  2.215189e-01  1.128987e-01 -5.684138e-02
     vertex  2.339550e-01  8.287533e-02 -5.684138e-02
   endloop
 endfacet
 facet normal  9.238796e-01  3.826833e-01  0.000000e+00
   outer loop
     vertex  2.165063e-01  1.250000e-01  9.431586e-01
     vertex  2.215189e-01  1.128987e-01 -5.684138e-02
     vertex  2.165063e-01  1.250000e-01 -5.684138e-02
   endloop
 endfacet
 facet normal  9.238796e-01 -3.826833e-01  0.000000e+00
   outer loop
     vertex  2.414815e-01 -6.470476e-02  9.431586e-01
     vertex  2.364689e-01 -7.680608e-02 -5.684138e-02
     vertex  2.414815e-01 -6.470476e-02 -5.684138e-02
   endloop
 endfacet
 facet normal  0.000000e+00  0.000000e+00 -1.000000e+00
   outer loop
     vertex  2.364689e-01 -7.680608e-02 -5.684138e-02
     vertex  2.440486e-01 -4.520534e-02 -5.684138e-02
     vertex  2.414815e-01 -6.470476e-02 -5.684138e-02
   endloop
 endfacet
 facet normal  9.238795e-01  3.826835e-01 -2.772237e-09
   outer loop
     vertex  2.165063e-01  1.250000e-01  9.431586e-01
     vertex  2.339550e-01  8.287533e-02 -5.684138e-02
     vertex  2.215189e-01  1.128987e-01 -5.684138e-02
   endloop
 endfacet
 facet normal  9.914449e-01 -1.305258e-01  0.000000e+00
   outer loop
     vertex  2.414815e-01 -6.470476e-02  9.431586e-01
     vertex  2.414815e-01 -6.470476e-02 -5.684138e-02
     vertex  2.440486e-01 -4.520534e-02 -5.684138e-02
   endloop
 endfacet
 facet normal  0.000000e+00  0.000000e+00  1.000000e+00
   outer loop
     vertex  2.339550e-01  8.287533e-02 -5.684138e-02
     vertex  2.283651e-01  1.017319e-01 -5.684138e-02
     vertex  2.215189e-01  1.128987e-01 -5.684138e-02
   endloop
 endfacet
 facet normal  0.000000e+00  0.000000e+00 -1.000000e+00
   outer loop
     vertex  2.364689e-01 -7.680608e-02 -5.684138e-02
     vertex  2.431911e-01  5.171845e-02 -5.684138e-02
     vertex  2.440486e-01 -4.520534e-02 -5.684138e-02
   endloop
 endfacet
 facet normal  0.000000e+00  0.000000e+00 -1.000000e+00
   outer loop
     vertex  2.364689e-01 -7.680608e-02 -5.684138e-02
     vertex  2.339550e-01  8.287533e-02 -5.684138e-02
     vertex  2.431911e-01  5.171845e-02 -5.684138e-02
   endloop
 endfacet
 facet normal  9.238795e-01  3.826835e-01 -5.619758e-09
   outer loop
     vertex  2.165063e-01  1.250000e-01  9.431586e-01
     vertex  2.414815e-01  6.470476e-02  9.431586e-01
     vertex  2.339550e-01  8.287533e-02 -5.684138e-02
   endloop
 endfacet
 facet normal  9.914449e-01 -1.305261e-01 -7.068377e-09
   outer loop
     vertex  2.500000e-01  0.000000e+00  9.431586e-01
     vertex  2.414815e-01 -6.470476e-02  9.431586e-01
     vertex  2.440486e-01 -4.520534e-02 -5.684138e-02
   endloop
 endfacet
 facet normal  0.000000e+00  0.000000e+00  1.000000e+00
   outer loop
     vertex  2.440486e-01 -4.520534e-02 -5.684138e-02
     vertex  2.486359e-01 -2.608012e-02 -5.684138e-02
     vertex  2.482903e-01 -1.298631e-02 -5.684138e-02
   endloop
 endfacet
 facet normal  0.000000e+00  0.000000e+00 -1.000000e+00
   outer loop
     vertex  2.440486e-01 -4.520534e-02 -5.684138e-02
     vertex  2.474328e-01  1.949942e-02 -5.684138e-02
     vertex  2.482903e-01 -1.298631e-02 -5.684138e-02
   endloop
 endfacet
 facet normal  0.000000e+00  0.000000e+00 -1.000000e+00
   outer loop
     vertex  2.440486e-01 -4.520534e-02 -5.684138e-02
     vertex  2.431911e-01  5.171845e-02 -5.684138e-02
     vertex  2.474328e-01  1.949942e-02 -5.684138e-02
   endloop
 endfacet
 facet normal  9.914449e-01 -1.305262e-01 -6.491954e-09
   outer loop
     vertex  2.500000e-01  0.000000e+00  9.431586e-01
     vertex  2.440486e-01 -4.520534e-02 -5.684138e-02
     vertex  2.482903e-01 -1.298631e-02 -5.684138e-02
   endloop
 endfacet
 facet normal  0.000000e+00  0.000000e+00 -1.000000e+00
   outer loop
     vertex  2.431911e-01  5.171845e-02 -5.684138e-02
     vertex  2.339550e-01  8.287533e-02 -5.684138e-02
     vertex  2.414815e-01  6.470476e-02 -5.684138e-02
   endloop
 endfacet
 facet normal  9.238794e-01  3.826838e-01  0.000000e+00
   outer loop
     vertex  2.414815e-01  6.470476e-02  9.431586e-01
     vertex  2.414815e-01  6.470476e-02 -5.684138e-02
     vertex  2.339550e-01  8.287533e-02 -5.684138e-02
   endloop
 endfacet
 facet normal  9.914450e-01  1.305255e-01  0.000000e+00
   outer loop
     vertex  2.414815e-01  6.470476e-02  9.431586e-01
     vertex  2.431911e-01  5.171845e-02 -5.684138e-02
     vertex  2.414815e-01  6.470476e-02 -5.684138e-02
   endloop
 endfacet
 facet normal  0.000000e+00  0.000000e+00 -1.000000e+00
   outer loop
     vertex  2.482903e-01 -1.298631e-02 -5.684138e-02
     vertex  2.474328e-01  1.949942e-02 -5.684138e-02
     vertex  2.500000e-01  0.000000e+00 -5.684138e-02
   endloop
 endfacet
 facet normal  9.914449e-01  1.305262e-01 -8.487681e-09
   outer loop
     vertex  2.414815e-01  6.470476e-02  9.431586e-01
     vertex  2.474328e-01  1.949942e-02 -5.684138e-02
     vertex  2.431911e-01  5.171845e-02 -5.684138e-02
   endloop
 endfacet
 facet normal  9.914448e-01 -1.305266e-01  0.000000e+00
   outer loop
     vertex  2.500000e-01  0.000000e+00  9.431586e-01
     vertex  2.482903e-01 -1.298631e-02 -5.684138e-02
     vertex  2.500000e-01  0.000000e+00 -5.684138e-02
   endloop
 endfacet
 facet normal  0.000000e+00  0.000000e+00  1.000000e+00
   outer loop
     vertex  2.474328e-01  1.949942e-02 -5.684138e-02
     vertex  2.469139e-01  3.916025e-02 -5.684138e-02
     vertex  2.431911e-01  5.171845e-02 -5.684138e-02
   endloop
 endfacet
 facet normal  9.914449e-01  1.305261e-01 -7.561953e-09
   outer loop
     vertex  2.414815e-01  6.470476e-02  9.431586e-01
     vertex  2.500000e-01  0.000000e+00  9.431586e-01
     vertex  2.474328e-01  1.949942e-02 -5.684138e-02
   endloop
 endfacet
 facet normal  9.914448e-01  1.305265e-01  0.000000e+00
   outer loop
     vertex  2.500000e-01  0.000000e+00  9.431586e-01
     vertex  2.500000e-01  0.000000e+00 -5.684138e-02
     vertex  2.474328e-01  1.949942e-02 -5.684138e-02
   endloop
 endfacet
endsolid
